<svg width="150" height="150" viewBox="0 0 150 150" fill="none" xmlns="http://www.w3.org/2000/svg">
  <!-- Main shield outline -->
  <path d="M75 10 L125 35 L125 85 Q125 115 75 140 Q25 115 25 85 L25 35 Z" 
        stroke="currentColor" stroke-width="3" fill="none" opacity="0.8"/>
  
  <!-- Inner shield -->
  <path d="M75 20 L115 40 L115 80 Q115 105 75 125 Q35 105 35 80 L35 40 Z" 
        stroke="currentColor" stroke-width="2" fill="rgba(59, 130, 246, 0.1)" opacity="0.9"/>
  
  <!-- Central eye/sensor -->
  <circle cx="75" cy="65" r="25" stroke="currentColor" stroke-width="2" 
          fill="rgba(16, 185, 129, 0.2)" opacity="0.8"/>
  <circle cx="75" cy="65" r="15" stroke="currentColor" stroke-width="1.5" 
          fill="rgba(16, 185, 129, 0.4)" opacity="0.9"/>
  <circle cx="75" cy="65" r="8" fill="currentColor" opacity="0.7"/>
  
  <!-- Scanning lines -->
  <g stroke="currentColor" stroke-width="1" opacity="0.6">
    <line x1="50" y1="45" x2="100" y2="45" stroke-dasharray="3,2"/>
    <line x1="50" y1="55" x2="100" y2="55" stroke-dasharray="3,2"/>
    <line x1="50" y1="75" x2="100" y2="75" stroke-dasharray="3,2"/>
    <line x1="50" y1="85" x2="100" y2="85" stroke-dasharray="3,2"/>
  </g>
  
  <!-- Corner sensors -->
  <circle cx="45" cy="45" r="3" fill="currentColor" opacity="0.6"/>
  <circle cx="105" cy="45" r="3" fill="currentColor" opacity="0.6"/>
  <circle cx="45" cy="85" r="3" fill="currentColor" opacity="0.6"/>
  <circle cx="105" cy="85" r="3" fill="currentColor" opacity="0.6"/>
  
  <!-- Data streams -->
  <g stroke="currentColor" stroke-width="0.5" opacity="0.4">
    <path d="M60 30 Q65 35 70 30 T80 30" fill="none"/>
    <path d="M70 100 Q75 105 80 100 T90 100" fill="none"/>
  </g>
</svg>